<?xml version="1.0" encoding="UTF-8"?>
<svg id="Layer_1" xmlns="http://www.w3.org/2000/svg" version="1.1" viewBox="0 0 222 44">
  <!-- Generator: Adobe Illustrator 29.1.0, SVG Export Plug-In . SVG Version: 2.1.0 Build 142)  -->
  <defs>
    <style>
      .st0 {
        fill: #fff;
      }

      .st1 {
        fill: #609440;
      }
    </style>
  </defs>
  <g>
    <rect class="st1" x="29.9" y="10.2" width="192.1" height="23.5"/>
    <path class="st0" d="M22,.8C10.3.8.8,10.3.8,22s9.5,21.2,21.2,21.2,21.2-9.5,21.2-21.2S33.7.8,22,.8h0Z"/>
    <path class="st1" d="M22,44C9.9,44,0,34.1,0,22S9.9,0,22,0s22,9.9,22,22-9.9,22-22,22h0ZM22,.8C10.3.8.8,10.3.8,22s9.5,21.2,21.2,21.2,21.2-9.5,21.2-21.2S33.7.8,22,.8h0Z"/>
    <circle class="st1" cx="22" cy="22" r="19.5"/>
  </g>
  <g>
    <path class="st0" d="M55.4,22.4h0c0-3,2.3-5.3,5.3-5.3s3.4.9,4.3,2.1l-2.1,1.6c-.6-.7-1.2-1.2-2.2-1.2-1.4,0-2.4,1.2-2.4,2.7h0c0,1.6,1,2.7,2.4,2.7s1.7-.5,2.3-1.2l2.1,1.5c-1,1.3-2.2,2.3-4.5,2.3s-5.2-2.2-5.2-5.2Z"/>
    <path class="st0" d="M65,22.4h0c0-2.9,2.3-5.3,5.5-5.3s5.5,2.3,5.5,5.2h0c0,2.9-2.3,5.3-5.5,5.3s-5.5-2.3-5.5-5.2ZM73.1,22.4h0c0-1.5-1.1-2.8-2.6-2.8s-2.6,1.2-2.6,2.7h0c0,1.5,1.1,2.8,2.6,2.8s2.6-1.2,2.6-2.7Z"/>
    <path class="st0" d="M76.7,17.3h2.6l4.2,5.4v-5.4h2.8v10.1h-2.5l-4.3-5.6v5.6h-2.8v-10.1Z"/>
    <path class="st0" d="M89.8,19.8h-3v-2.5h8.9v2.5h-3v7.7h-2.8v-7.7Z"/>
    <path class="st0" d="M96.2,17.3h4.8c1.6,0,2.6.4,3.3,1.1.6.6.9,1.4.9,2.4h0c0,1.6-.8,2.6-2.1,3.1l2.4,3.5h-3.2l-2-3.1h-1.2v3.1h-2.8v-10.1ZM100.8,22.2c1,0,1.5-.5,1.5-1.2h0c0-.8-.6-1.2-1.5-1.2h-1.8v2.4h1.9Z"/>
    <path class="st0" d="M105.5,22.4h0c0-2.9,2.3-5.3,5.5-5.3s5.5,2.3,5.5,5.2h0c0,2.9-2.3,5.3-5.5,5.3s-5.5-2.3-5.5-5.2ZM113.6,22.4h0c0-1.5-1.1-2.8-2.6-2.8s-2.6,1.2-2.6,2.7h0c0,1.5,1.1,2.8,2.6,2.8s2.6-1.2,2.6-2.7Z"/>
    <path class="st0" d="M117.2,17.3h2.8v7.7h4.9v2.5h-7.7v-10.1Z"/>
    <path class="st0" d="M128.7,17.3h3.9c3.6,0,5.7,2.1,5.7,5h0c0,3-2.1,5.1-5.8,5.1h-3.9v-10.1ZM132.6,25c1.7,0,2.8-.9,2.8-2.6h0c0-1.7-1.1-2.6-2.8-2.6h-1.1v5.2h1.1Z"/>
    <path class="st0" d="M139,17.3h8.2v2.4h-5.4v1.5h4.9v2.2h-4.9v1.6h5.5v2.4h-8.2v-10.1Z"/>
    <path class="st0" d="M151.3,17.3h4.3c2.6,0,4.2,1.3,4.2,3.6h0c0,2.4-1.8,3.7-4.4,3.7h-1.4v2.9h-2.8v-10.1ZM155.4,22.4c1,0,1.6-.5,1.6-1.3h0c0-.9-.6-1.4-1.6-1.4h-1.3v2.7h1.3Z"/>
    <path class="st0" d="M160.3,17.3h2.8v7.7h4.9v2.5h-7.7v-10.1Z"/>
    <path class="st0" d="M172,17.3h2.7l4.3,10.2h-3l-.7-1.8h-3.9l-.7,1.8h-3l4.3-10.2ZM174.5,23.5l-1.1-2.9-1.1,2.9h2.3Z"/>
    <path class="st0" d="M178.3,22.4h0c0-3,2.3-5.3,5.5-5.3s3,.6,4.1,1.5l-1.7,2c-.7-.6-1.5-1-2.5-1-1.5,0-2.6,1.2-2.6,2.8h0c0,1.7,1.1,2.8,2.8,2.8s1.2-.1,1.6-.4v-1.2h-2v-2.1h4.7v4.6c-1.1.9-2.6,1.6-4.4,1.6-3.2,0-5.5-2.2-5.5-5.2Z"/>
    <path class="st0" d="M192.6,17.3h2.7l4.3,10.2h-3l-.7-1.8h-3.9l-.7,1.8h-3l4.3-10.2ZM195,23.5l-1.1-2.9-1.1,2.9h2.3Z"/>
    <path class="st0" d="M199,26l1.6-1.9c1,.8,2.1,1.2,3.3,1.2s1.2-.3,1.2-.7h0c0-.4-.3-.7-1.7-1-2.2-.5-3.8-1.1-3.8-3.2h0c0-1.9,1.5-3.3,3.9-3.3s3.1.5,4.2,1.3l-1.4,2c-.9-.7-1.9-1-2.8-1s-1,.3-1,.7h0c0,.5.3.7,1.8,1,2.3.5,3.8,1.3,3.8,3.2h0c0,2.1-1.6,3.3-4.1,3.3s-3.5-.6-4.8-1.7Z"/>
  </g>
  <path class="st0" d="M32.1,19.6h-3.4c-.1,0-.2,0-.3.2l-1.5,1.9-2.3-.8s0,0-.1,0c0,0,0,0,0-.1,0-1-.2-1.8-.4-2.4l2.1-4.6,2.6-3.4c.1-.2,0-.4,0-.6-.2-.1-.4,0-.6,0l-2.6,3.4s0,0,0,0l-1.5,3.2c-.2-.5-.6-.8-1.2-.8s-.3,0-.5,0v-1.8c0-.2-.2-.4-.4-.4s-.4.2-.4.4v1.8c-.1,0-.3,0-.5,0-.6,0-1,.4-1.2.8l-1.5-3.2s0,0,0,0l-2.6-3.4c-.1-.2-.4-.2-.6,0-.2.1-.2.4,0,.6l2.6,3.4,2.1,4.6c-.3.6-.4,1.4-.4,2.4,0,0,0,0,0,.1,0,0,0,0-.1,0l-2.3.8-1.5-1.9c0,0-.2-.2-.3-.2h-3.4c-.2,0-.4.2-.4.4s.2.4.4.4h3.3l1.6,2c0,0,.2.2.3.2s0,0,.1,0l2-.7c-.2.5-.4,1-.7,1.7l-1.5.4c-.1,0-.2.1-.3.2l-.8,2.1-2.9,2.5c-.2.1-.2.4,0,.6,0,0,.2.1.3.1s.2,0,.3,0l3-2.6s0,0,.1-.2l.8-2,.8-.2c-1.1,2.7-2.3,6.2-2.3,8s.5,1.6,1,1.9c.4.2.8.3,1.2.3.7,0,1.5-.2,1.9-.5.5-.4,1-1.1,1.4-1.9,0,0,0,0,0,0,.4-.7.7-1.5.9-2.2.2.6.5,1.4.9,2.2,0,0,0,0,0,0,.4.8.9,1.5,1.4,1.9.4.3,1.1.5,1.9.5s.8,0,1.2-.3c.5-.2,1-.8,1-1.9,0-1.8-1.2-5.3-2.3-8l.8.2.8,2c0,0,0,.1.1.2l3,2.6c0,0,.2,0,.3,0s.2,0,.3-.1c.1-.2.1-.4,0-.6l-2.9-2.5-.8-2.1c0-.1-.2-.2-.3-.2l-1.5-.4c-.3-.6-.5-1.2-.7-1.7l2,.7s0,0,.1,0c.1,0,.2,0,.3-.2l1.6-2h3.3c.2,0,.4-.2.4-.4s-.2-.4-.4-.4M21.7,24.2c-.8-.7-1.3-1.8-1.6-2.5.6,0,1.2-.2,1.5-.6.4.3,1,.5,1.6.6-.3.7-.8,1.7-1.6,2.5M21.7,17.9c.2.2.5.3.9.3s.2,0,.2,0c.4.5.7,1.4.7,2.6s0,0,0,0c0,0,0,0,0,0-.7,0-1.3-.2-1.4-.6,0-.2-.2-.3-.4-.3s-.3.1-.4.3c0,.4-.7.6-1.4.6,0,0,0,0,0,0,0-1.2.2-2.1.7-2.6,0,0,.2,0,.2,0,.3,0,.6-.1.9-.3M22.6,16.5c.3,0,.5.2.5.5s-.2.5-.5.5-.5-.2-.5-.5.2-.5.5-.5M20.9,16.5c.3,0,.5.2.5.5s-.2.5-.5.5-.5-.2-.5-.5.2-.5.5-.5M16.1,32.5c0-1.5,1-4.5,2-7-.2,1.5-.3,3-.4,4.3-.1,2-.3,3.8-.9,3.8h0s0,0,0,0c-.4-.2-.6-.6-.6-1.2M18.9,33.4c-.2.1-.6.3-1.1.3.2-.3.2-.6.3-.8.2-.8.3-1.9.3-3.1,0-1.4.2-2.9.5-4.5.2,1.7.5,3.1.8,4.2.3,1,.5,1.8.4,2.3-.4.7-.8,1.3-1.2,1.6M21.3,28.5c-.1.4-.3,1.1-.6,1.8,0-.3-.2-.6-.2-1-.4-1.7-1-3.9-.8-6.7.3.8.9,1.6,1.6,2.3h0v3.6ZM22.1,27.6v-2.6h0c.8-.7,1.3-1.6,1.6-2.4.2,2.8-.4,5-.8,6.7,0,.4-.2.7-.2,1-.3-.7-.5-1.4-.6-1.8v-1ZM23.4,31.8c0-.4.1-1.3.4-2.3.3-1.1.6-2.5.8-4.2.3,1.6.4,3.1.5,4.5,0,1.3.2,2.3.3,3.1,0,.2.1.5.3.8-.5,0-.9-.2-1.1-.3-.4-.3-.8-.9-1.2-1.6M26.8,33.6s0,0,0,0h0s0,0,0,0c-.6,0-.7-1.9-.9-3.8,0-1.3-.2-2.8-.4-4.3,1,2.5,2,5.5,2,7s-.2.9-.6,1.2"/>
</svg>